<?xml version="1.0" standalone="no"?>
<svg viewBox="0 0 200 200" xmlns="http://www.w3.org/2000/svg">
  <path fill="#470441" d="M40.6,-69.3C48.1,-66.1,46.4,-46,52.3,-31.6C58.1,-17.2,71.5,-8.6,71.7,0.2C72,8.9,59.2,17.8,45.1,17.9C31,17.9,15.6,9.1,7.8,11.5C0.1,13.9,0.1,27.5,-3.9,34.3C-7.9,41.2,-15.8,41.1,-28.1,41.3C-40.3,41.5,-56.9,42,-67.8,35.1C-78.7,28.3,-84,14.1,-82.5,0.9C-81,-12.4,-72.8,-24.8,-63.2,-34.1C-53.7,-43.4,-42.9,-49.5,-32.2,-50.9C-21.4,-52.3,-10.7,-48.8,2.9,-53.9C16.6,-59,33.2,-72.6,40.6,-69.3Z" transform="translate(100 100)" />
</svg>
