<?xml version="1.0" standalone="no"?>
<svg viewBox="0 0 200 200" xmlns="http://www.w3.org/2000/svg">
  <path fill="#F3E6D4" d="M27.9,-50.3C34.4,-44.6,36.7,-33.6,41.9,-24.3C47.1,-15,55.2,-7.5,56.1,0.5C57,8.5,50.7,17.1,47.1,29.1C43.5,41.2,42.6,56.7,35.2,63.1C27.8,69.4,13.9,66.5,-0.1,66.7C-14.1,66.8,-28.2,70.1,-34,62.8C-39.8,55.6,-37.3,37.8,-46,25.6C-54.7,13.4,-74.5,6.7,-76.6,-1.2C-78.7,-9.1,-62.9,-18.1,-55.3,-32.3C-47.7,-46.4,-48.3,-65.6,-40.5,-70.5C-32.6,-75.4,-16.3,-66.1,-2.8,-61.3C10.7,-56.4,21.4,-56,27.9,-50.3Z" transform="translate(100 100)" />
</svg>
