<?xml version="1.0" standalone="no"?>
<svg viewBox="0 0 200 200" xmlns="http://www.w3.org/2000/svg">
  <path fill="#FFFFFF" d="M31.9,-53.5C42.4,-42.9,52.7,-35.8,59,-25.8C65.3,-15.8,67.5,-2.9,68,11.4C68.6,25.8,67.3,41.5,58,47.8C48.7,54,31.4,50.9,18.6,47.3C5.8,43.8,-2.4,39.9,-11.1,37.5C-19.8,35.1,-29,34.1,-38.1,29.6C-47.3,25.2,-56.5,17.3,-55.9,9.2C-55.2,1.1,-44.7,-7.3,-39.7,-18.1C-34.7,-28.9,-35.2,-42.2,-29.5,-55C-23.8,-67.7,-11.9,-80,-0.6,-79.1C10.7,-78.2,21.4,-64.1,31.9,-53.5Z" transform="translate(100 100)" />
</svg>
